<svg xmlns="http://www.w3.org/2000/svg" viewBox="-5 0 150 35" fill="#5939A4" width="400px" height="110px">
    <path d="M27.42 29.58H0v4.818h27.42V29.58Z"/>
    <path fill-rule="evenodd" clip-rule="evenodd"
          d="M18.36 18.034C14.88 23.845 9.029 28.286 0 28.286v-4.742c7.113 0 11.506-3.357 14.242-7.918 2.811-4.712 3.86-10.718 3.86-15.626h4.788c.015 5.42-1.125 12.36-4.53 18.034Z"/>
    <path d="M40.187 35c5.456 0 9.165-2.439 10.062-7.467h-4.651c-.517 1.656-1.93 3.372-5.502 3.372-3.405 0-6.156-1.836-6.278-5.765H50.34a17.73 17.73 0 0 0 .212-2.695c0-6.307-4.392-9.98-10.41-9.98-6.582 0-11.096 4.004-11.096 11.26 0 7.617 4.56 11.275 11.14 11.275Zm-6.369-13.217c.304-3.749 2.964-5.284 6.232-5.284 3.785 0 5.806 2.258 5.897 5.284H33.818Zm17.555-8.701 7.053 21.33h7.235l7.31-21.33h-5.076l-5.38 16.514h-.867l-5.061-16.514h-5.214ZM80.753 35c3.694 0 6.49-1.927 7.752-4.396h.684c.046 1.16.258 2.725.684 3.794h4.864c-.471-1.701-.897-3.463-.897-7.678v-5.584c0-4.908-2.66-8.656-10.032-8.656-4.909 0-9.682 2.468-9.682 8.144h4.727c0-2.349 1.718-4.14 5.123-4.14 3.693 0 5.03 2.002 5.03 4.14v.647c-13.116.045-15.016 4.652-15.016 7.768.015 4.094 3.116 5.961 6.763 5.961Zm1.034-3.884c-1.809 0-3.055-.813-3.055-2.514 0-2.092 2.158-4.094 10.29-4.185v.934c-.091 2.74-3.314 5.765-7.235 5.765Zm15.412-1.099v4.396h18.543v-4.396h-9.895v-7.165c0-4.095 1.46-5.887 3.527-5.887 1.459 0 2.371.648 2.447 2.605 0 .361-.016.707-.046 1.069h4.514c.076-.663.122-1.34.122-2.002 0-4.05-2.067-5.932-5.457-5.932-2.112 0-4.514.979-5.38 4.005h-.775l-.304-3.628h-7.311v4.696h3.876v12.24h-3.861ZM129.634 35c5.457 0 9.165-2.439 10.062-7.467h-4.651c-.517 1.656-1.93 3.372-5.502 3.372-3.405 0-6.156-1.836-6.277-5.765h16.521a17.71 17.71 0 0 0 .213-2.695c0-6.307-4.393-9.98-10.411-9.98-6.582 0-11.096 4.004-11.096 11.26 0 7.617 4.56 11.275 11.141 11.275Zm-6.368-13.217c.304-3.749 2.964-5.284 6.231-5.284 3.785 0 5.806 2.258 5.898 5.284h-12.129Z"/>
</svg>